<?xml version="1.0" encoding="UTF-8" standalone="no"?>
<!-- Created with Inkscape (http://www.inkscape.org/) -->

<svg
   width="38.732559mm"
   height="35.914539mm"
   viewBox="0 0 38.732559 35.914539"
   version="1.1"
   id="svg1"
   xml:space="preserve"
   inkscape:version="1.3.2 (091e20e, 2023-11-25, custom)"
   sodipodi:docname="Contemplating Life_1.svg"
   xmlns:inkscape="http://www.inkscape.org/namespaces/inkscape"
   xmlns:sodipodi="http://sodipodi.sourceforge.net/DTD/sodipodi-0.dtd"
   xmlns="http://www.w3.org/2000/svg"
   xmlns:svg="http://www.w3.org/2000/svg"><sodipodi:namedview
     id="namedview1"
     pagecolor="#000000"
     bordercolor="#666666"
     borderopacity="1.0"
     inkscape:showpageshadow="2"
     inkscape:pageopacity="0.0"
     inkscape:pagecheckerboard="0"
     inkscape:deskcolor="#d1d1d1"
     inkscape:document-units="mm"
     inkscape:zoom="45.254834"
     inkscape:cx="40.835417"
     inkscape:cy="99.624716"
     inkscape:window-width="2560"
     inkscape:window-height="1377"
     inkscape:window-x="-8"
     inkscape:window-y="1072"
     inkscape:window-maximized="1"
     inkscape:current-layer="layer1" /><defs
     id="defs1" /><g
     inkscape:label="Contemplating Life"
     inkscape:groupmode="layer"
     id="layer1"
     transform="translate(-84.752672,-110.92434)"
     style="stroke:#0000ff"><path
       style="fill:none;stroke:#00ff00;stroke-width:0.264583"
       d="m 101.22658,123.95478 c 0,0.003 -1e-5,0.006 -4e-5,0.01 -0.002,0.20873 -0.0589,0.61681 -0.42774,0.98328 -0.3136,0.31157 -0.77252,0.50806 -1.283778,0.50806 -0.395581,0 -0.759817,-0.11764 -1.049666,-0.3152 -0.402764,-0.27451 -0.661893,-0.70332 -0.661894,-1.18519 10e-7,-0.49046 0.26845,-0.92595 0.683567,-1.19972 0.286238,-0.18878 0.64221,-0.30067 1.027993,-0.30067 0.458656,0 0.875178,0.15815 1.182468,0.41564 0.46243,0.38748 0.52642,0.85706 0.529,1.07114 3e-5,0.002 4e-5,0.003 6e-5,0.005 2e-5,0.003 3e-5,0.006 3e-5,0.009"
       id="path2"
       inkscape:label="Left eye"
       sodipodi:nodetypes="csssscscsssc" /><path
       style="fill:none;stroke:#00ff00;stroke-width:0.264583;stroke-dasharray:none"
       d="m 102.98616,125.90213 h 2.64553"
       id="path9"
       inkscape:label="Mouth"
       sodipodi:nodetypes="cc" /><path
       style="fill:none;stroke:#00ff00;stroke-width:0.264583"
       d="m 106.97734,123.89027 c 0,-0.003 0,-0.006 3e-5,-0.01 0.002,-0.21063 0.0624,-0.68043 0.52327,-1.07022 0.30784,-0.26036 0.72672,-0.42051 1.18826,-0.42051 0.50107,0 0.95185,0.18875 1.26487,0.48958 0.27748,0.26668 0.44669,0.62142 0.44669,1.01082 0,0.38875 -0.16866,0.74298 -0.44533,1.0095 -0.31307,0.30159 -0.76443,0.49089 -1.26623,0.49089 -0.42141,0 -0.80725,-0.13351 -1.10548,-0.35491 -0.52933,-0.39295 -0.60106,-0.90399 -0.6058,-1.12049 -1e-4,-0.004 -1.7e-4,-0.008 -2.1e-4,-0.0125 -4e-5,-0.004 -7e-5,-0.008 -7e-5,-0.0121"
       id="path2-3"
       sodipodi:nodetypes="cssssssssssc"
       inkscape:label="Right Eye" /><path
       style="fill:none;stroke:#00ff00;stroke-width:0.264583;stroke-dasharray:none"
       d="m 105.52739,116.72504 c 0.0153,-0.007 0.0306,-0.0148 0.0457,-0.0218 0.0193,-0.009 0.0384,-0.0182 0.0574,-0.0282 2.67725,-1.34083 2.55064,-4.56692 -0.30306,-5.57509 -0.25134,1.26222 -0.98547,1.97967 -1.89069,2.45 -1.62285,0.8432 -3.747949,0.90643 -5.526604,1.53636 -3.47344,1.23016 -6.301415,5.68798 -6.301415,8.60985 0,2.92187 0.364034,6.41981 3.518259,8.58203 0.827967,0.56757 1.738201,1.15945 2.701302,1.66627 0.01038,0.006 0.07324,0.0382 0.08185,0.043"
       id="path1"
       sodipodi:nodetypes="ccccsssscc"
       inkscape:label="Left Side Face" /><path
       style="stroke:#00ff00;fill:none;stroke-width:0.264583;stroke-dasharray:none"
       d="m 100.25727,132.33962 c 0.88295,1.22316 2.18605,1.86232 4.03423,1.86232 1.84818,0 2.77578,-0.69892 3.87706,-1.78896"
       id="path10"
       inkscape:label="Chin" /><path
       style="fill:none;stroke:#00ff00;stroke-width:0.264583;stroke-dasharray:none"
       d="m 110.52884,133.57621 c 0.23119,-0.13306 0.0863,-0.05 0.0863,-0.05 0.68188,-0.39233 1.59033,-0.85541 2.11754,-1.21913 2.28022,-1.57306 3.37751,-3.31506 3.46046,-8.28197 0.066,-3.9536 -5.24077,-9.23835 -8.65182,-9.34485 -0.0164,-5.1e-4 -0.0327,-9.1e-4 -0.0489,-0.001 -0.0184,-3.1e-4 -0.0367,-4.6e-4 -0.055,-4.6e-4"
       id="path5"
       inkscape:label="Right Side Face"
       sodipodi:nodetypes="cccsssc" /><path
       style="fill:none;stroke:#ffffff;stroke-width:0.264583;stroke-dasharray:none"
       d="m 109.37578,115.07107 c 0.004,-0.002 0.008,-0.005 0.0122,-0.007 2.89933,-1.69418 9.6472,-0.13023 10.52529,-0.12583 0.91733,0.005 1.9053,-1.23443 2.65428,-0.12484 0.74898,1.10959 -0.92206,1.28531 -0.7979,2.06296 0.30627,1.91846 1.56207,3.74171 1.5829,7.54392 0.0197,3.59194 -0.80339,7.79751 -0.75705,8.09551 0.0707,0.4544 1.53655,1.00425 0.2491,1.96018 -1.28745,0.95593 -1.85243,-0.52694 -2.30097,-0.58075 -0.44718,-0.0536 -1.69534,1.16292 -3.32326,0.83945 -0.005,-9.8e-4 -0.01,-0.002 -0.0149,-0.003"
       id="path6"
       inkscape:label="Pillow Right"
       sodipodi:nodetypes="cscscccscsc" /><path
       id="path18"
       style="fill:none;stroke:#00ff00;stroke-width:0.264583;stroke-dasharray:none"
       inkscape:label="Right Arm"
       d="m 112.73267,132.30699 c 1.76736,-0.23078 3.45048,1.01587 4.47281,2.42393 1.02245,1.40823 1.67858,3.08091 1.98096,3.90757 0.60473,1.65322 2.20975,5.59632 -0.91486,7.36878 -2.22483,1.26205 -5.52328,0.43881 -7.35244,0.32532 -1.82917,-0.1135 -3.5234,0.12871 -4.12551,-0.49797 -0.62385,-0.6493 -0.18012,-1.0152 -0.48738,-1.61164 -0.36594,-0.78987 -0.12057,-1.61681 0.16948,-2.3866 0.0714,-0.17791 0.5964,-1.16373 1.1358,-1.51879 0.6016,-0.39599 3.79187,-0.24527 3.79187,-0.24527 l 3.74363,0.0982 0.0696,0.002"
       sodipodi:nodetypes="cssscscccccc" /><path
       style="fill:none;stroke:#00ff00;stroke-width:0.264583px;stroke-linecap:butt;stroke-linejoin:miter;stroke-opacity:1"
       d="m 113.71807,140.13296 -0.004,-0.009 -1.49504,-3.80996 -0.007,-0.017"
       id="path4"
       sodipodi:nodetypes="cccc"
       inkscape:label="Right Armpit" /><path
       style="fill:none;stroke:#00ffff;stroke-width:0.264583;stroke-dasharray:none"
       d="m 112.96554,138.21493 c 0,0 -2.62662,-0.47029 -8.17507,-0.57479 -5.167497,-0.0973 -9.254261,0.42723 -9.254261,0.42723"
       id="path13"
       inkscape:label="Bedsheet"
       sodipodi:nodetypes="csc" /><path
       style="fill:none;stroke:#00ff00;stroke-width:0.264583px;stroke-linecap:butt;stroke-linejoin:miter;stroke-opacity:1"
       d="m 96.03461,136.32671 -0.0088,0.0311 -1.084809,3.7864 -0.0036,0.0125"
       id="path3"
       inkscape:label="Left Armpit"
       sodipodi:nodetypes="cccc" /><path
       id="path7"
       style="fill:none;stroke:#00ff00;stroke-width:0.264583;stroke-dasharray:none"
       inkscape:label="Left Arm"
       d="m 93.014913,140.40063 c 0.03766,-0.003 0.07501,-0.008 0.11252,-0.012 1.692938,-0.18868 6.263356,-0.96725 7.533247,-0.24748 0.58711,0.33277 0.87312,1.01855 1.11822,1.61523 0.28646,0.71956 0.16554,1.57359 0.13461,2.24788 -0.0309,0.6743 -0.0344,1.14044 -0.37566,1.64075 -0.41072,0.43993 -1.906076,0.46926 -2.834754,0.55816 -2.58207,0.0551 -6.090622,0.91808 -8.198001,0.17231 -1.965438,-0.69554 -2.202545,-2.89107 -2.201953,-4.73086 4.26e-4,-1.3243 0.334164,-2.40699 0.626505,-3.61247 0.279035,-1.15063 0.557976,-1.99075 1.17484,-3.00401 0.616863,-1.01325 1.293333,-1.53346 2.318898,-2.10346 1.025564,-0.56999 2.702805,-0.64649 2.702805,-0.64649"
       sodipodi:nodetypes="ccsczccsssscc" /><path
       style="fill:none;stroke:#ffffff;stroke-width:0.264583;stroke-dasharray:none"
       d="m 90.105209,135.02803 c 0,0 -0.0044,-0.001 -0.01278,-0.003 -0.18168,-0.0433 -2.242886,-0.53189 -2.512214,-0.47464 -0.281783,0.0599 -1.609991,1.87738 -2.174555,0.36655 -0.564564,-1.51083 0.817834,-1.75629 0.6699,-2.49725 -0.443733,-2.22252 -1.225918,-5.04314 -1.189349,-7.68548 0.03657,-2.64233 1.319861,-6.27002 1.650636,-7.25045 0.259206,-0.7683 -1.729974,-1.28188 -0.842492,-2.52135 0.887483,-1.23946 2.147698,0.60769 2.528308,0.52339 0.379947,-0.0841 6.975297,-1.98167 9.67332,-0.40782 0.0047,0.003 0.0094,0.006 0.01409,0.008"
       id="path8"
       inkscape:label="Pillow Left"
       sodipodi:nodetypes="csssssscssc" /></g></svg>
