<?xml version="1.0" encoding="UTF-8" standalone="no"?>
<!-- Generator: Adobe Illustrator 21.0.2, SVG Export Plug-In . SVG Version: 6.00 Build 0)  -->

<svg
   width="640.45721"
   height="516.53906"
   inkscape:version="1.3.2 (091e20e, 2023-11-25, custom)"
   sodipodi:docname="Surprised Pikachu_1.svg"
   version="1.1"
   viewBox="0 0 640.45719 516.53908"
   xml:space="preserve"
   id="svg5"
   xmlns:inkscape="http://www.inkscape.org/namespaces/inkscape"
   xmlns:sodipodi="http://sodipodi.sourceforge.net/DTD/sodipodi-0.dtd"
   xmlns="http://www.w3.org/2000/svg"
   xmlns:svg="http://www.w3.org/2000/svg"><defs
   id="defs5" /><sodipodi:namedview
   bordercolor="#666666"
   borderopacity="1.0"
   inkscape:current-layer="svg5"
   inkscape:cx="632.80533"
   inkscape:cy="41.907125"
   inkscape:deskcolor="#d1d1d1"
   inkscape:pagecheckerboard="0"
   inkscape:pageopacity="0.0"
   inkscape:showpageshadow="2"
   inkscape:window-height="1377"
   inkscape:window-maximized="1"
   inkscape:window-width="2560"
   inkscape:window-x="-8"
   inkscape:window-y="1072"
   inkscape:zoom="45.254834"
   pagecolor="#000000"
   showgrid="false"
   id="namedview1" />
<style
   type="text/css"
   id="style1">
	.st0{fill:#FFFFFF;}
	.st1{fill:#ECBC3D;}
	.st2{fill:#7E2B19;}
	.st3{fill:#7D2B18;}
	.st4{fill:#CE5828;}
	.st5{fill:#EF805F;}
	.st6{fill:#5C120D;}
</style><path
   class="st1"
   d="m 121.85295,516.3605 c 3.9,-10.2 9,-33.9 8.7,-36.7 -1.4247,-13.356 -1.6017,-2.3567 -23.9,-52.2 -11.935002,-22.123 -14.251002,-46.604 -12.569002,-71.382 2.1874,-26.021 9.254602,-53.491 17.178002,-77.553 12.507,-37.985 27.147,-67.477 28.091,-69.364 C 97.567948,172.8255 66.499948,126.8285 38.452948,79.561497 23.589374,54.7367 9.7258682,29.742317 1.1561564,2.0780477 1.0204199,1.6398705 0.88601145,1.2010235 0.75294815,0.7614967 1.2209084,0.90895514 1.6881487,1.056873 2.1546692,1.205246 45.94257,15.131633 83.388445,33.068228 114.50295,51.533497 c 66.27188,39.329829 103.8,81.062003 112.65,91.528003 17.791,-5.2326 48.92,-9.4019 91.962,-9.3517 26.104,0.0304 56.59,1.613 91.138,5.4517 36.082,-19.856 79.46737,-38.92607 120.45,-55.216003 41.89347,-16.651981 81.27295,-30.395064 107.76065,-39.095641 0.50108,-0.164596 0.99756,-0.327387 1.48935,-0.488359 0.004,0.489324 0.005,0.978535 0.004,1.46764 -0.031,8.900975 -0.99154,17.766533 -1.7035,26.63236 -1.5316,21.88 -23.882,55.519003 -50.528,86.009003 -26.162,29.936 -56.465,56.836 -75.272,66.591 11.2,13.333 21.582,26.577 31.9,66.3 4.6313,18.291 8.092,36.847 12,55.3 6.3504,29.212 12.274,59.705 17.72,91.209 4.4162,25.547 8.5185,51.758 12.28,78.491"
   stroke="#ffff00"
   inkscape:label="Body"
   sodipodi:nodetypes="cccssccscsscscsscscscccsc"
   id="path1"
   style="fill:none;fill-opacity:1" /><path
   style="fill:none;fill-opacity:1;stroke:#ff0000"
   d="m 529.55295,358.6605 c 0,-0.11286 -7.5e-4,-0.22586 -0.002,-0.339 -0.001,-0.0773 -0.002,-0.15458 -0.004,-0.23196 -0.34246,-15.35348 -14.45014,-33.02904 -38.89362,-33.02904 -21.5,0 -38.9,15 -38.9,33.6 0,18.6 17.4,33.6 38.9,33.6 24.05574,0 38.26788,-17.18562 38.87943,-32.5686 0.006,-0.14775 0.0105,-0.29534 0.0139,-0.44274 0.004,-0.19656 0.007,-0.39279 0.007,-0.58866"
   id="path4"
   inkscape:label="Right Cheek"
   sodipodi:nodetypes="csssssssc" /><path
   style="fill:none;fill-opacity:1;stroke:#ffff00"
   d="m 429.35295,296.0605 c -0.0918,0 -0.18339,-6.9e-4 -0.27488,-0.002 -0.11446,-0.002 -0.22871,-0.005 -0.34274,-0.008 -12.11275,-0.4101 -21.78238,-12.84608 -21.78238,-27.98956 0,-15.4 10.1,-28 22.4,-28 12.4,0 22.4,12.6 22.4,28 0,15.17196 -9.80309,27.62623 -21.85506,27.99174 -0.0805,0.002 -0.16113,0.004 -0.24185,0.006 -0.10088,0.002 -0.20191,0.003 -0.30309,0.003"
   id="path6"
   inkscape:label="Right Eye"
   sodipodi:nodetypes="csssssssc" /><path
   style="fill:none;fill-opacity:1;stroke:#ffffff"
   d="m 423.65295,268.0605 c -0.0796,0 -0.15903,-9.7e-4 -0.2382,-0.003 -0.081,-0.002 -0.16172,-0.005 -0.24219,-0.009 -2.44042,-0.12041 -4.64183,-1.15307 -6.27013,-2.7639 -1.75921,-1.74034 -2.84948,-4.15553 -2.84948,-6.82428 0,-2.60905 1.04203,-4.97576 2.73242,-6.70647 1.74346,-1.78505 4.17663,-2.89353 6.86758,-2.89353 2.60481,0 4.96807,1.03865 6.69803,2.72418 1.78999,1.74403 2.90197,4.18063 2.90197,6.87582 0,2.6591 -1.0824,5.06647 -2.83042,6.80537 -1.64266,1.63409 -3.87314,2.67785 -6.34557,2.78542 -0.0725,0.003 -0.14524,0.006 -0.21817,0.007 -0.0684,0.001 -0.13705,0.002 -0.20584,0.002"
   id="path8"
   inkscape:label="Right Pupil"
   sodipodi:nodetypes="csssssssssssc" /><path
   class="st5"
   d="m 324.15295,362.2605 c -0.0589,0 -0.11767,6e-5 -0.17641,1.9e-4 -0.06,1.3e-4 -0.11985,3.3e-4 -0.17968,5.9e-4 -23.59045,0.10331 -38.14391,10.48317 -38.14391,27.19922 0,17.4 15.5,36.1 38.5,36.1 15.8,0 25.4,-2.7 31.3,-8.6 4.9,-4.9 7.2,-12.2 7.2,-22.2 -0.19858,-29.98484 -15.77566,-32.46581 -38.02013,-32.49964 -0.0806,-1.2e-4 -0.16138,-2.1e-4 -0.2422,-2.7e-4 -0.0791,-6e-5 -0.15836,-9e-5 -0.23767,-9e-5"
   stroke="#ef805f"
   inkscape:label="Mouth"
   id="path5"
   style="fill:none;fill-opacity:1"
   sodipodi:nodetypes="cssssscssc" /><path
   style="fill:none;fill-opacity:1;stroke:#ffff00"
   d="m 293.45295,315.6605 c 0,-0.11812 0.0153,-0.23866 0.0455,-0.3611 0.0179,-0.0724 0.0409,-0.14555 0.0692,-0.21921 0.89387,-2.33151 6.95305,-5.21969 15.98537,-5.21969 9.8,0 16.1,3.4 16.1,5.8 0,2.4 -6.3,5.8 -16.1,5.8 -8.99195,0 -15.03728,-2.86243 -15.97307,-5.1884 -0.046,-0.11443 -0.0797,-0.22756 -0.10076,-0.33898 -0.0174,-0.0921 -0.0262,-0.18306 -0.0262,-0.27262"
   id="path7"
   inkscape:label="Nose"
   sodipodi:nodetypes="csssssssc" /><path
   style="fill:none;fill-opacity:1;stroke:#ffff00"
   d="m 223.05295,296.0605 c -0.0604,0 -0.12071,-3e-4 -0.18098,-9.1e-4 -0.0589,-5.9e-4 -0.11782,-0.001 -0.17665,-0.003 -12.13754,-0.24138 -22.04237,-12.74597 -22.04237,-27.99645 0,-15.4 10,-28 22.4,-28 12.4,0 22.4,12.6 22.4,28 0,15.32738 -9.77851,27.72121 -21.98662,27.99536 -0.0659,0.001 -0.13183,0.003 -0.19785,0.003 -0.0718,8.4e-4 -0.14361,0.001 -0.21553,0.001"
   id="path2"
   inkscape:label="Left Eye"
   sodipodi:nodetypes="csssssssc" /><path
   style="fill:none;fill-opacity:1;stroke:#ffffff"
   d="m 217.35295,268.0605 c -0.13422,0 -0.2678,-0.003 -0.4007,-0.008 -0.16291,-0.007 -0.32478,-0.0175 -0.48552,-0.0323 -4.87615,-0.44842 -8.71378,-4.55939 -8.71378,-9.55944 0,-5.27832 4.28985,-9.6 9.6,-9.6 5.29619,0 9.6,4.30765 9.6,9.6 0,5.05277 -3.92152,9.20424 -8.88037,9.57332 -0.11646,0.009 -0.23349,0.0152 -0.35106,0.0197 -0.12229,0.005 -0.24516,0.007 -0.36857,0.007"
   id="path3"
   inkscape:label="Left Pupil"
   sodipodi:nodetypes="csssssssc" /><path
   style="fill:none;fill-opacity:1;stroke:#ff0000"
   d="m 115.95295,356.1605 c 0,0.14178 0.001,0.29033 0.004,0.44536 0.002,0.12056 0.006,0.24503 0.01,0.37328 0.16015,4.71414 1.82523,14.52473 11.98223,22.37327 6.36693,4.91987 14.77684,7.90809 24.00367,7.90809 10.36847,0 19.70535,-3.77345 26.27088,-9.82103 6.03556,-5.55942 9.72912,-13.04066 9.72912,-21.27897 0,-9.03294 -4.44045,-17.15573 -11.53977,-22.833 -6.41879,-5.13307 -15.01113,-8.267 -24.46023,-8.267 -11.23901,0 -21.26593,4.43368 -27.86497,11.3915 -6.56981,6.927 -7.96963,14.36118 -8.12036,18.84267 -0.004,0.12039 -0.007,0.23864 -0.01,0.3547 -0.004,0.17548 -0.005,0.34593 -0.005,0.51113"
   id="path9"
   inkscape:label="Left Cheek"
   sodipodi:nodetypes="cssssscsssssc" /></svg>
